<svg width="32" height="32" xmlns="http://www.w3.org/2000/svg">

 <g>
  <title>background</title>
  <rect fill="none" id="canvas_background" height="402" width="582" y="-1" x="-1"/>
 </g>
 <g>
  <title>Layer 1</title>
  <path stroke="#bb9f00" fill="none" id="svg_1" d="m24,3l-16,0c-2.8,0 -5,2.2 -5,5l0,16c0,2.8 2.2,5 5,5l16,0c2.8,0 5,-2.2 5,-5l0,-16c0,-2.8 -2.2,-5 -5,-5zm-2,18l-12,0c-0.6,0 -1,-0.4 -1,-1s0.4,-1 1,-1l12,0c0.6,0 1,0.4 1,1s-0.4,1 -1,1zm0,-4l-12,0c-0.6,0 -1,-0.4 -1,-1s0.4,-1 1,-1l12,0c0.6,0 1,0.4 1,1s-0.4,1 -1,1zm0,-4l-12,0c-0.6,0 -1,-0.4 -1,-1s0.4,-1 1,-1l12,0c0.6,0 1,0.4 1,1s-0.4,1 -1,1z"/>
 </g>
</svg>