<?xml version="1.0" encoding="utf-8"?>
<!-- Generator: Adobe Illustrator 25.4.1, SVG Export Plug-In . SVG Version: 6.00 Build 0)  -->
<svg version="1.1" xmlns="http://www.w3.org/2000/svg" xmlns:xlink="http://www.w3.org/1999/xlink" x="0px" y="0px"
	 viewBox="0 0 1200 1200" style="enable-background:new 0 0 1200 1200;" xml:space="preserve">
<style type="text/css">
	.st0{fill:url(#SVGID_1_);}
	.st1{fill:url(#SVGID_00000123414023430194798700000004664223517707019402_);}
	.st2{fill:url(#SVGID_00000045592302167988859840000013990848321584196756_);}
	.st3{display:none;}
	.st4{display:inline;}
	
		.st5{clip-path:url(#SVGID_00000178193629113723863450000018424106169241822613_);fill-rule:evenodd;clip-rule:evenodd;fill:url(#SVGID_00000059271327769751239770000006280833522354564799_);}
	.st6{opacity:0;fill:#FFFFFF;}
	.st7{opacity:0.0476;fill:#F5F5F5;}
	.st8{opacity:0.0952;fill:#EAEBEB;}
	.st9{opacity:0.1429;fill:#E0E0E1;}
	.st10{opacity:0.1905;fill:#D6D6D7;}
	.st11{opacity:0.2381;fill:#CCCCCD;}
	.st12{opacity:0.2857;fill:#C1C2C3;}
	.st13{opacity:0.3333;fill:#B7B7B9;}
	.st14{opacity:0.381;fill:#ADADAF;}
	.st15{opacity:0.4286;fill:#A2A3A5;}
	.st16{opacity:0.4762;fill:#98999B;}
	.st17{opacity:0.5238;fill:#8E8E91;}
	.st18{opacity:0.5714;fill:#848487;}
	.st19{opacity:0.619;fill:#797A7D;}
	.st20{opacity:0.6667;fill:#6F7073;}
	.st21{opacity:0.7143;fill:#656569;}
	.st22{opacity:0.7619;fill:#5A5B5F;}
	.st23{opacity:0.8095;fill:#505155;}
	.st24{opacity:0.8571;fill:#46474B;}
	.st25{opacity:0.9048;fill:#3C3C41;}
	.st26{opacity:0.9524;fill:#313237;}
	.st27{fill:#27282D;}
	.st28{display:inline;fill:url(#SVGID_00000100362238782328516520000006326957559900358031_);}
	.st29{display:inline;fill:url(#SVGID_00000017483803915782788890000010190280124893438853_);}
	.st30{fill:url(#SVGID_00000056388038064515229180000012991773940638096300_);}
	.st31{fill:url(#SVGID_00000107556275742431950730000010398590976074521023_);}
	.st32{fill:url(#SVGID_00000107588225108343780880000006513177266739932800_);}
	.st33{fill:url(#SVGID_00000148628884831318040150000011664131621897314700_);}
	.st34{fill:url(#SVGID_00000085240001008846911790000015394164727154051233_);}
	.st35{fill:url(#SVGID_00000168115935802668849440000017380677439127625904_);}
	.st36{opacity:0.25;}
	.st37{fill:#FFFFFF;}
</style>
<g id="back">
	<radialGradient id="SVGID_1_" cx="602.6868" cy="605.886" r="723.8244" gradientUnits="userSpaceOnUse">
		<stop  offset="0" style="stop-color:#27282D"/>
		<stop  offset="0.4305" style="stop-color:#202126"/>
		<stop  offset="1" style="stop-color:#0F1016"/>
	</radialGradient>
	<rect class="st0" width="1200" height="1200"/>
</g>
<g id="Ñëîé_4">
	<g>
		
			<linearGradient id="SVGID_00000171720516962064479500000009871227757119168400_" gradientUnits="userSpaceOnUse" x1="1257.75" y1="-660" x2="2462.25" y2="-660" gradientTransform="matrix(0 -1 1 0 1260 2460)">
			<stop  offset="0" style="stop-color:#BE965D"/>
			<stop  offset="0.2784" style="stop-color:#976F40"/>
			<stop  offset="0.4259" style="stop-color:#C99B61"/>
			<stop  offset="0.5584" style="stop-color:#F0BE7B"/>
			<stop  offset="0.6275" style="stop-color:#FFCB85"/>
			<stop  offset="0.7085" style="stop-color:#EEBC79"/>
			<stop  offset="0.8693" style="stop-color:#C0935B"/>
			<stop  offset="1" style="stop-color:#976F40"/>
		</linearGradient>
		<path style="fill:url(#SVGID_00000171720516962064479500000009871227757119168400_);" d="M1130.86,1128.99l68.94,71.01h0.2v-2.68
			l-68.21-70.26l-21.99-26.19l35.03-20.61l55.18,93.86v-3.96l-53.74-91.42l49.58-177.24l4.15,32.81v-15.99l-2.76-21.79l2.76-8.94
			v-6.81l-4.51,14.63l-100.55-3.14L1200,815.8v-2.48l-107.82,78.5l-25.75-33.99L1200,806.18v-2.15l-134.09,51.85l9.58-170.36
			l124.5,90.07v-2.48l-120.96-87.5L1200,711.47v-2.05l-123.67-26.45l57.01-77.07l66.66,67.93v-2.87l-65.56-66.81L1200,466.42v-4.67
			l-67.26,141.32l-81.29-33.78L1200,430.57v-2.75l-148.66,138.81l55.42-240.84l93.25,58.08v-2.37l-92.38-57.54l55.76-64.18
			l36.62,79.24v-4.79l-35.32-76.43l25.99-166.35l9.33,75.66v-16.41l-8.18-66.38l8.18-21.46v-5.63l-8.74,22.93L1181,4.29l5.36-4.29
			h-3.21l-3.51,2.81L1155.5,0h-17.35l39.03,4.55l-124.02,86.18L1067.64,0h-2.03l-14.57,91.29L895.26,0h-3.97l157.95,92.56
			L866.83,142.7L830.53,0h-2.07l36.05,141.75l-90.58-56.88L803.89,0h-2.13l-29.57,83.77L640.98,0h-3.73l131.74,84.11L664.83,78.9
			L634.49,0h-2.15l30.49,79.29l-96.41,36.68L630.05,0h-2.29l-63.27,115.32L530.8,6.9L595.64,0h-18.98l-47.07,5.01L514.68,0h-6.3
			l14.64,4.92L400,2.87L399.44,0h-2.05l0.6,3.09L251.77,36.04L317.94,0h-4.2l-68.52,37.33L214.53,0h-2.6l31.93,38.83l-29.7,101.39
			L206.37,0h-2.01l7.99,143.77L56.24,5.71L112.95,0H92.92L54.27,3.89L50.92,0h-2.65l4.11,4.77L0,42.92v2.48L52.66,7.05l-21.19,239.4
			L0,176.96v4.87l30.99,68.43L1.14,293.48L0,288.15v12.3l1.11-2.89L143.3,403.94L0,379.33v2.04l145.06,24.92L34.63,508.22L0,435.45
			v4.67l30.48,64.06L0,470.61v2.99l31.96,35.19l-25.31-0.97L0,497.03v3.83l4.95,8.03L0,520.84v5.24l6.73-16.25l25.76,0.99L0,560.47
			v3.67l34.61-52.88l61.78,37.7L0,603.4v2.31l96.94-54.76L73.72,662.81L0,641.17v2.09l73.44,21.56l-7.4,150.04L0,702.2v3.97
			L65.62,818.1L0,880.56v2.77l65.26-62.12l-51.89,254.15L0,1041.07v5.52l12.6,32.31L0,1113.51v5.87l13.97-38.34l14.82,20.74
			L0,1155.23v4.23l30.41-56.47L249.08,1200h4.95l-221.69-98.34l371.78-181.59L326.09,1200h2.08l77.74-278.89l64.82,142.4
			L344.94,1200h2.73l124.4-134.99l39.36,26.93L359.13,1200h3.47l150.61-106.86L677.35,1200h3.68l-164.78-107.28l203.35-13.84
			l0.88,121.12h2.01l-0.88-121.62l113.72-66.34L735.27,1200h2.27l100.53-188.85l160.66,181.01l-63,7.84h16.25l48.74-6.07l31.05,6.07
			h10.47l-38.4-7.5L1130.86,1128.99z M1129.48,1127.43l-121.9,60.95l100.57-86.35L1129.48,1127.43z M1002.54,1190.06l57.02-217.51
			l47.51,127.76L1002.54,1190.06z M1064.56,980.22l52.38,91.18l-8.73,26.19L1064.56,980.22z M1144.32,1078.24l-34.26,20.16
			l8.93-26.78l72.61-162.36L1144.32,1078.24z M1117.92,1069.09l-57.14-99.47l133.33-70.9L1117.92,1069.09z M621.19,1005.23
			L515.61,900.71l128.81-1.06L621.19,1005.23z M645.97,901.95l72.34,172.99l-95.41-68.15L645.97,901.95z M1008.59,167.36
			l73.85,14.36l12.31,60.51L1008.59,167.36z M1094.44,244.62L888.52,330.6l116.76-163.46L1094.44,244.62z M1006.74,164.95
			l44.79-69.79l30.21,84.38L1006.74,164.95z M998.68,165.67l-141.06,22.65l9.27-43.25L998.68,165.67z M1002.89,167.03l-116.71,163.4
			l-28.65-140.06L1002.89,167.03z M884.31,331.32L593.39,224.76l262.14-34.1L884.31,331.32z M263.42,669.29l98.85-13.25L266.48,707
			L263.42,669.29z M264.41,706.32l-58.08-48.07l55.08,11.02L264.41,706.32z M264.01,667.19l40.92-90.24l60.86,76.6L264.01,667.19z
			 M797.43,820.06l-20.17-156.06l145.45,98.73L797.43,820.06z M922.23,765.15l-71.46,119.81l-52.55-63.06L922.23,765.15z
			 M473.26,329.01l25.21-53.44l33.27,15.12L473.26,329.01z M533.4,292.01l71.39,153.29L472.51,331.91L533.4,292.01z M500.23,274.16
			l84.79-46.44l-51.48,61.58L500.23,274.16z M496.75,274.52l-25.65,54.39l-26.68-98.51L496.75,274.52z M469.72,331.5l-57,57
			l30.06-156.49L469.72,331.5z M472.12,334.22l133.2,114.17l-118.4,16.91L472.12,334.22z M484.73,463.75l-54.99-53.96l40.47-74.71
			L484.73,463.75z M606.08,450.32l-57.15,141.81l-61.38-124.88L606.08,450.32z M547.61,593.99l-177.6,58.49L485.93,468.5
			L547.61,593.99z M548.56,595.8l49.6,87.6L372.3,653.84L548.56,595.8z M551.12,596.26l220.02,65.27L600.6,683.63L551.12,596.26z
			 M770.08,663.69l-115.64,56.79l-51.63-35.11L770.08,663.69z M652.9,721.86L516.73,893.64l83.8-207.4L652.9,721.86z M656.32,721.79
			l118.84-58.36l20.16,155.98L656.32,721.79z M778.32,662.29l95.87-27.39l48.46,125.37L778.32,662.29z M876.22,634.6l50.75-3.11
			l-3.11,126.35L876.22,634.6z M876.31,632.58l55.9-139.74l-5.18,136.63L876.31,632.58z M873.11,633.11l-96.3,27.52l-27.52-191.55
			L873.11,633.11z M774.76,660.5l-223.37-66.26l195.58-127.18L774.76,660.5z M551.14,592.01l57.16-141.85l136.56,15.88
			L551.14,592.01z M608.59,448.17l-18.07-220.04l155.2,235.99L608.59,448.17z M606.2,443.56L535,290.69l53.4-63.87L606.2,443.56z
			 M498.11,273.04l-52.82-44.54l139.83-3.11L498.11,273.04z M410.34,390.22l-167.17-54.3l198.05-106.48L410.34,390.22z
			 M466.67,337.39l-38.4,70.9l-15.76-16.74L466.67,337.39z M427.04,409.91l-82.18,70.29l66.33-87.12L427.04,409.91z M428.44,411.34
			l55.44,54.39l-142.26,19.87L428.44,411.34z M484.04,467.74L368.22,651.57l-28.69-163.64L484.04,467.74z M366.01,650.59
			l-60.17-75.73L338,490.83L366.01,650.59z M304.11,573.75l-47.39-17.51l79.33-65.93L304.11,573.75z M303.34,575.61l-40.26,88.78
			l-7.23-106.33L303.34,575.61z M595.17,685.09l-226.03,65.48v-95.06L595.17,685.09z M581.39,691.3l-200.25,82.28l-11.9-20.82
			L581.39,691.3z M379.62,774.97l-13.86,46.21l2.77-65.61L379.62,774.97z M598.24,686.55l-85.43,211.44l-130.28-122.8L598.24,686.55
			z M653.2,724.71l-8.49,172.93l-129.43,1.06L653.2,724.71z M655.27,723.5l139.4,97.9l-147.91,75.55L655.27,723.5z M795.35,823.31
			l-3.99,28.95l-134.78,41.93L795.35,823.31z M797.29,823.93l49.26,59.11l-53.2-30.54L797.29,823.93z M849.84,887.24l-12.42,117
			l-43.49-149.09L849.84,887.24z M855.91,886.63l148.71-32.47l42.94,69.12L855.91,886.63z M852.95,885.22l71.95-120.63l78.3,87.83
			L852.95,885.22z M926.59,763.47l78.58-19.91l-1.05,106.86L926.59,763.47z M925.78,761.6l3.15-128.1l75.6,108.15L925.78,761.6z
			 M929.75,631.17l53.91-8.29l20.73,115.07L929.75,631.17z M929.05,629.24l5.2-137.18l48.84,128.86L929.05,629.24z M874.52,631.65
			L749.96,466.63l182.05,21.29L874.52,631.65z M749.97,464.61l135.2-129.88l46.84,151.17L749.97,464.61z M747.92,463.8
			L591.71,226.28L883.8,333.27L747.92,463.8z M445.28,226.49l118.35-106.73l24.3,103.56L445.28,226.49z M440.79,227.39
			L242.58,333.95l79.93-201.41L440.79,227.39z M323.39,130.68L398.68,6.6l42.42,218.46L323.39,130.68z M241.09,332.26l-26.47-185.3
			l105.88-14.82L241.09,332.26z M239.39,334.55L98.98,277.11L212.79,148.4L239.39,334.55z M239.29,336.68l-14.27,31.6l-120.27-86.63
			L239.29,336.68z M241.17,337.37l160,51.98l-174.27-20.38L241.17,337.37z M409.25,392.31l-70.98,93.23L228.09,371.13L409.25,392.31
			z M336.89,487l-81.42,67.68l-28.55-181.88L336.89,487z M252.27,554.84l-108.35-30.5l4.21-115.71L252.27,554.84z M253.28,557.21
			l-50.6,96.98l-57.98-127.55L253.28,557.21z M253.99,560.21l7.27,106.98l-57.13-11.42L253.99,560.21z M263.83,708.44L71.12,814.8
			l131.63-156.91L263.83,708.44z M367.13,655.98v94.54l-98.74-42.02L367.13,655.98z M366.65,752.69l-3.12,73.78l-94.56-115.34
			L366.65,752.69z M381.2,776.69l126.67,119.4L365.63,828.6L381.2,776.69z M509.89,899.27l-103.62,17.79l-39.77-85.83L509.89,899.27
			z M648.16,898.91l143.43-44.62l44.62,152.99L648.16,898.91z M851.79,887.88l194.28,37.16l-207.02,82.81L851.79,887.88z
			 M1089.58,896.24l-29.88,69.71l-8.96-40.83L1089.58,896.24z M1048.9,926.07l9.3,42.35l-210.71,38.22L1048.9,926.07z
			 M1192.42,897.35L1061.44,967l31.18-72.76L1192.42,897.35z M1090.56,893.01l-39.36,29.27l14.13-62.58L1090.56,893.01z
			 M1063.59,858.29l-14.41,63.8l-42.19-67.92L1063.59,858.29z M1063.12,856.24l-57.01-4.15l1.04-105.73L1063.12,856.24z
			 M1064.03,853.6l-56.59-111.09l66.02-56.59L1064.03,853.6z M1072.95,683.72l-66.09,56.65l-20.98-116.44L1072.95,683.72z
			 M986.15,621.67l62.83-50.27l24.09,109.96L986.15,621.67z M1131.67,604.79l-56.56,76.46l-24.09-109.98L1131.67,604.79z
			 M1047.96,569.66l-63.04,50.43l-49.38-130.28L1047.96,569.66z M1048.98,567.92l-113.97-80.95l169.36-159.77L1048.98,567.92z
			 M933.91,485.25L887,333.84l216.45-8.53L933.91,485.25z M891.19,331.66l204.3-85.3l9.48,76.88L891.19,331.66z M1161.74,258.61
			l-54.93,63.23l-9.33-75.66L1161.74,258.61z M1097.17,244.07l-12.26-60.26l75.58,72.52L1097.17,244.07z M1084.8,180.92l82.11-66.32
			l-4.21,141.07L1084.8,180.92z M1165.12,241.98l3.86-129.16l20.24-25.06L1165.12,241.98z M1189.74,83.92l-20.38,25.23l10.67-97.04
			L1189.74,83.92z M1054.39,92.32l124.3-86.38l-11.59,105.34L1054.39,92.32z M1165.62,113.07l-81.87,66.12l-30.44-85.02
			L1165.62,113.07z M1049.53,94.56l-44.93,70l-133.73-20.89L1049.53,94.56z M864.98,144.41l-9.18,42.85l-78.57-97.95L864.98,144.41z
			 M854.43,188.78l-261.61,34.03L772.55,86.69L854.43,188.78z M769.91,86.16L592.14,220.81l72.58-139.9L769.91,86.16z M662.03,81.74
			l-72.47,139.68L565.4,118.5L662.03,81.74z M562.61,117.98L443.25,225.62L400.62,6.08L562.61,117.98z M528.73,7.02l33.67,108.38
			L402.47,4.92L528.73,7.02z M397.09,5.36l-75.15,123.83L246.8,39.22L397.09,5.36z M245.41,40.69l74.73,89.47L214.88,144.9
			L245.41,40.69z M54.68,7.01l157.09,138.92L33.31,248.53L54.68,7.01z M34.4,250.21l174.27-100.18L97.01,276.3L34.4,250.21z
			 M32.5,251.59l61.32,25.55L2.86,294.52L32.5,251.59z M3.07,296.52l93.59-17.88l48.37,124.09L3.07,296.52z M99.46,280.3
			l123.98,89.31l-75.65,34.67L99.46,280.3z M148.76,406.05l75.88-34.78l28.45,181.26L148.76,406.05z M36.55,509.19l109.6-101.17
			l-4.22,115.93L36.55,509.19z M38.96,511.55l100.75,14.11l-41.31,22.17L38.96,511.55z M100.02,549.23l42.4-22.75l56.89,125.15
			L100.02,549.23z M98.97,551.04l101.4,104.57L75.74,663L98.97,551.04z M75.44,665.03l124.91-7.41L68.03,815.35L75.44,665.03z
			 M70.54,817.41l194.82-107.52l96.88,118.17L70.54,817.41z M363.77,830.12l40.07,86.47L74.82,819.57L363.77,830.12z M14.75,1078.67
			l47.54-232.83l-32.98,253.2L14.75,1078.67z M31.2,1099.98l36.53-280.4l335.19,98.84L31.2,1099.98z M407.14,918.95l104.7-17.98
			l-40.19,159.7L407.14,918.95z M513.73,901.67l106.23,105.17l-146.59,55.24L513.73,901.67z M474.08,1063.95l141.88-53.46
			l-102.81,80.19L474.08,1063.95z M516.39,1090.7l105.42-82.22l95.93,68.52L516.39,1090.7z M721.08,1076.37l-73.34-175.38
			l188.13,108.41L721.08,1076.37z M839.81,1010.07l218.22-39.58l-57.76,220.36L839.81,1010.07z"/>
		
			<linearGradient id="SVGID_00000160158936946292651700000002775653117218046893_" gradientUnits="userSpaceOnUse" x1="1257.7493" y1="-1255.299" x2="2462.2498" y2="-1255.299" gradientTransform="matrix(0 -1 1 0 1260 2460)">
			<stop  offset="0" style="stop-color:#BE965D"/>
			<stop  offset="0.2784" style="stop-color:#976F40"/>
			<stop  offset="0.4259" style="stop-color:#C99B61"/>
			<stop  offset="0.5584" style="stop-color:#F0BE7B"/>
			<stop  offset="0.6275" style="stop-color:#FFCB85"/>
			<stop  offset="0.7085" style="stop-color:#EEBC79"/>
			<stop  offset="0.8693" style="stop-color:#C0935B"/>
			<stop  offset="1" style="stop-color:#976F40"/>
		</linearGradient>
		<polygon style="fill:url(#SVGID_00000160158936946292651700000002775653117218046893_);" points="6.95,0 0,9.96 0,13.47 9.4,0 		
			"/>
	</g>
</g>
<g id="Ñëîé_5" class="st3">
	<g class="st4">
		<defs>
			<rect id="SVGID_00000168078570331790264930000009681715138308340638_" y="-772" width="1200" height="224"/>
		</defs>
		
			<radialGradient id="SVGID_00000065049191915731562150000004658623632260307092_" cx="598.5276" cy="-658.3467" r="596.9719" gradientUnits="userSpaceOnUse">
			<stop  offset="0" style="stop-color:#27282D"/>
			<stop  offset="0.4305" style="stop-color:#202126"/>
			<stop  offset="1" style="stop-color:#0F1016"/>
		</radialGradient>
		
			<use xlink:href="#SVGID_00000168078570331790264930000009681715138308340638_"  style="overflow:visible;fill-rule:evenodd;clip-rule:evenodd;fill:url(#SVGID_00000065049191915731562150000004658623632260307092_);"/>
		<clipPath id="SVGID_00000006694747540367860300000007027903440050081184_">
			<use xlink:href="#SVGID_00000168078570331790264930000009681715138308340638_"  style="overflow:visible;"/>
		</clipPath>
		
			<radialGradient id="SVGID_00000024706275022848020440000009480075628702131898_" cx="598.5276" cy="-658.3465" r="596.972" gradientTransform="matrix(1 0 0 1.12 0 -72)" gradientUnits="userSpaceOnUse">
			<stop  offset="0" style="stop-color:#27282D"/>
			<stop  offset="0.4305" style="stop-color:#202126"/>
			<stop  offset="1" style="stop-color:#0F1016"/>
		</radialGradient>
		
			<rect x="0.01" y="-1331.99" style="clip-path:url(#SVGID_00000006694747540367860300000007027903440050081184_);fill-rule:evenodd;clip-rule:evenodd;fill:url(#SVGID_00000024706275022848020440000009480075628702131898_);" width="1199.99" height="1343.99"/>
	</g>
	<g class="st4">
		<path class="st6" d="M835,796H287c-18.23,0-33-14.77-33-33V515c0-18.23,14.77-33,33-33h548c18.23,0,33,14.77,33,33v248
			C868,781.23,853.23,796,835,796z"/>
		<path class="st7" d="M836.52,793.81H289.19c-18.23,0-33-14.77-33-33V513.48c0-18.23,14.77-33,33-33h547.33c18.23,0,33,14.77,33,33
			v247.33C869.52,779.03,854.75,793.81,836.52,793.81z"/>
		<path class="st8" d="M838.05,791.62H291.38c-18.23,0-33-14.77-33-33V511.95c0-18.23,14.77-33,33-33h546.67c18.23,0,33,14.77,33,33
			v246.67C871.05,776.84,856.27,791.62,838.05,791.62z"/>
		<path class="st9" d="M839.57,789.43h-546c-18.23,0-33-14.77-33-33v-246c0-18.23,14.77-33,33-33h546c18.23,0,33,14.77,33,33v246
			C872.57,774.65,857.8,789.43,839.57,789.43z"/>
		<path class="st10" d="M841.1,787.24H295.76c-18.23,0-33-14.77-33-33V508.9c0-18.23,14.77-33,33-33H841.1c18.23,0,33,14.77,33,33
			v245.33C874.1,772.46,859.32,787.24,841.1,787.24z"/>
		<path class="st11" d="M842.62,785.05H297.95c-18.23,0-33-14.77-33-33V507.38c0-18.23,14.77-33,33-33h544.67
			c18.23,0,33,14.77,33,33v244.67C875.62,770.27,860.84,785.05,842.62,785.05z"/>
		<path class="st12" d="M844.14,782.86h-544c-18.23,0-33-14.77-33-33v-244c0-18.23,14.77-33,33-33h544c18.23,0,33,14.77,33,33v244
			C877.14,768.08,862.37,782.86,844.14,782.86z"/>
		<path class="st13" d="M845.67,780.67H302.33c-18.23,0-33-14.77-33-33V504.33c0-18.23,14.77-33,33-33h543.33
			c18.23,0,33,14.77,33,33v243.33C878.67,765.89,863.89,780.67,845.67,780.67z"/>
		<path class="st14" d="M847.19,778.48H304.52c-18.23,0-33-14.77-33-33V502.81c0-18.23,14.77-33,33-33h542.67
			c18.23,0,33,14.77,33,33v242.67C880.19,763.7,865.42,778.48,847.19,778.48z"/>
		<path class="st15" d="M848.71,776.29h-542c-18.23,0-33-14.77-33-33v-242c0-18.23,14.77-33,33-33h542c18.23,0,33,14.77,33,33v242
			C881.71,761.51,866.94,776.29,848.71,776.29z"/>
		<path class="st16" d="M850.24,774.1H308.9c-18.23,0-33-14.77-33-33V499.76c0-18.23,14.77-33,33-33h541.33c18.23,0,33,14.77,33,33
			V741.1C883.24,759.32,868.46,774.1,850.24,774.1z"/>
		<path class="st17" d="M851.76,771.9H311.1c-18.23,0-33-14.77-33-33V498.24c0-18.23,14.77-33,33-33h540.67c18.23,0,33,14.77,33,33
			V738.9C884.76,757.13,869.99,771.9,851.76,771.9z"/>
		<path class="st18" d="M853.29,769.71h-540c-18.23,0-33-14.77-33-33v-240c0-18.23,14.77-33,33-33h540c18.23,0,33,14.77,33,33v240
			C886.29,754.94,871.51,769.71,853.29,769.71z"/>
		<path class="st19" d="M854.81,767.52H315.48c-18.23,0-33-14.77-33-33V495.19c0-18.23,14.77-33,33-33h539.33
			c18.23,0,33,14.77,33,33v239.33C887.81,752.75,873.03,767.52,854.81,767.52z"/>
		<path class="st20" d="M856.33,765.33H317.67c-18.23,0-33-14.77-33-33V493.67c0-18.23,14.77-33,33-33h538.67
			c18.23,0,33,14.77,33,33v238.67C889.33,750.56,874.56,765.33,856.33,765.33z"/>
		<path class="st21" d="M857.86,763.14h-538c-18.23,0-33-14.77-33-33v-238c0-18.23,14.77-33,33-33h538c18.23,0,33,14.77,33,33v238
			C890.86,748.37,876.08,763.14,857.86,763.14z"/>
		<path class="st22" d="M859.38,760.95H322.05c-18.23,0-33-14.77-33-33V490.62c0-18.23,14.77-33,33-33h537.33
			c18.23,0,33,14.77,33,33v237.33C892.38,746.18,877.61,760.95,859.38,760.95z"/>
		<path class="st23" d="M860.9,758.76H324.24c-18.23,0-33-14.77-33-33V489.1c0-18.23,14.77-33,33-33H860.9c18.23,0,33,14.77,33,33
			v236.67C893.9,743.99,879.13,758.76,860.9,758.76z"/>
		<path class="st24" d="M862.43,756.57h-536c-18.23,0-33-14.77-33-33v-236c0-18.23,14.77-33,33-33h536c18.23,0,33,14.77,33,33v236
			C895.43,741.8,880.65,756.57,862.43,756.57z"/>
		<path class="st25" d="M863.95,754.38H328.62c-18.23,0-33-14.77-33-33V486.05c0-18.23,14.77-33,33-33h535.33
			c18.23,0,33,14.77,33,33v235.33C896.95,739.61,882.18,754.38,863.95,754.38z"/>
		<path class="st26" d="M865.48,752.19H330.81c-18.23,0-33-14.77-33-33V484.52c0-18.23,14.77-33,33-33h534.67
			c18.23,0,33,14.77,33,33v234.67C898.48,737.42,883.7,752.19,865.48,752.19z"/>
		<path class="st27" d="M867,750H333c-18.23,0-33-14.77-33-33V483c0-18.23,14.77-33,33-33h534c18.23,0,33,14.77,33,33v234
			C900,735.23,885.23,750,867,750z"/>
	</g>
	
		<radialGradient id="SVGID_00000179644446287173996890000009597460335317864086_" cx="701.1317" cy="818.1309" r="255.837" gradientTransform="matrix(0.9615 0 0 0.8523 -74.1381 -97.293)" gradientUnits="userSpaceOnUse">
		<stop  offset="0" style="stop-color:#27282D"/>
		<stop  offset="0.4305" style="stop-color:#202126"/>
		<stop  offset="1" style="stop-color:#0F1016"/>
	</radialGradient>
	
		<rect x="297" y="448.5" style="display:inline;fill:url(#SVGID_00000179644446287173996890000009597460335317864086_);" width="606" height="303"/>
	
		<linearGradient id="SVGID_00000029740456675368628580000003610222801391172992_" gradientUnits="userSpaceOnUse" x1="311.6448" y1="600" x2="888.3546" y2="600">
		<stop  offset="0" style="stop-color:#BE965D"/>
		<stop  offset="0.2784" style="stop-color:#976F40"/>
		<stop  offset="0.4259" style="stop-color:#C99B61"/>
		<stop  offset="0.5584" style="stop-color:#F0BE7B"/>
		<stop  offset="0.6275" style="stop-color:#FFCB85"/>
		<stop  offset="0.7085" style="stop-color:#EEBC79"/>
		<stop  offset="0.8693" style="stop-color:#C0935B"/>
		<stop  offset="1" style="stop-color:#976F40"/>
	</linearGradient>
	<path style="display:inline;fill:url(#SVGID_00000029740456675368628580000003610222801391172992_);" d="M887.85,461.12
		c-19.1,0-38.21,0-57.31,0c-45.87,0-91.74,0-137.61,0c-55.48,0-110.96,0-166.43,0c-47.93,0-95.85,0-143.78,0
		c-15.7,0-31.39,0-47.09,0c-7.43,0-15.09-0.53-22.5,0c-0.32,0.02-0.65,0-0.98,0c-1.36,0-2.52,1.16-2.52,2.52
		c0,30.71,0,61.42,0,92.13c0,48.95,0,97.9,0,146.85c0,11.24,0,22.48,0,33.72c0,0.74,0.27,1.3,0.68,1.71
		c0.03,0.03,0.05,0.06,0.08,0.09c0.02,0.02,0.03,0.03,0.05,0.05c0.4,0.41,0.97,0.69,1.72,0.69c19.1,0,38.21,0,57.31,0
		c45.87,0,91.74,0,137.61,0c55.48,0,110.96,0,166.43,0c47.93,0,95.85,0,143.78,0c15.7,0,31.39,0,47.09,0c7.43,0,15.09,0.53,22.5,0
		c0.32-0.02,0.65,0,0.98,0c1.37,0,2.53-1.16,2.53-2.53c0-30.71,0-61.42,0-92.13c0-48.95,0-97.9,0-146.85c0-11.24,0-22.48,0-33.72
		C890.38,462.29,889.22,461.12,887.85,461.12z M830.54,733.83c-45.87,0-91.74,0-137.61,0c-55.48,0-110.96,0-166.43,0
		c-47.93,0-95.85,0-143.78,0c-15.7,0-31.39,0-47.09,0c-6.92,0-14.02-0.45-20.96-0.09c0-29.84,0-59.68,0-89.52
		c0-48.95,0-97.9,0-146.85c0-10.4,0-20.8,0-31.19c18.26,0,36.52,0,54.79,0c45.87,0,91.74,0,137.61,0c55.48,0,110.96,0,166.43,0
		c47.93,0,95.85,0,143.78,0c15.7,0,31.39,0,47.09,0c4.95,0,9.89,0,14.84,0c1.8,0,4.12,0.34,6.12,0.22c0,29.8,0,59.59,0,89.39
		c0,48.95,0,97.9,0,146.85c0,10.4,0,20.8,0,31.19C867.06,733.83,848.8,733.83,830.54,733.83z"/>
	<g class="st4">
		<g>
			
				<linearGradient id="SVGID_00000070107623758386420730000000883525755413097374_" gradientUnits="userSpaceOnUse" x1="380.9004" y1="567.1226" x2="816.2356" y2="567.1226">
				<stop  offset="0" style="stop-color:#BE965D"/>
				<stop  offset="0.2784" style="stop-color:#976F40"/>
				<stop  offset="0.4259" style="stop-color:#C99B61"/>
				<stop  offset="0.5584" style="stop-color:#F0BE7B"/>
				<stop  offset="0.6275" style="stop-color:#FFCB85"/>
				<stop  offset="0.7085" style="stop-color:#EEBC79"/>
				<stop  offset="0.8693" style="stop-color:#C0935B"/>
				<stop  offset="1" style="stop-color:#976F40"/>
			</linearGradient>
			<path style="fill:url(#SVGID_00000070107623758386420730000000883525755413097374_);" d="M384.05,540.94
				c-0.79-0.58-1.26-1.63-1.26-2.8c0-1.2,0.49-2.28,1.3-2.87c1.23-0.9,3.33-0.76,5.95-0.5c0.63,0.06,1.2,0.12,1.61,0.13
				c7.23,0.09,14.34-0.11,20.34-0.3c0.73-0.02,1.98-0.05,2.93,0.72c0.71,0.57,1.08,1.42,1.02,2.4c-0.07,1.24-0.85,2.54-1.93,3.22
				c-1.29,0.81-2.63,1.02-3.82,1.2c-1.89,0.29-2.93,0.45-3.53,2.49c-0.3,1.03-0.3,2.2-0.3,3.33l0.05,26.65
				c0,2.48,0.01,5.03,0.17,7.52l0.06,1.24c0.09,2.03,0.2,4.32,0.94,5.86c1.02,2.12,4.16,3.08,9.29,2.88c0.85-0.03,1.83,0,2.84,0.03
				c1.94,0.07,4.14,0.15,5.6-0.34c0.64-0.21,1.31-0.57,1.99-1.07h0c1.5-1.1,2.81-2.66,4.02-4.17c0.32-0.4,0.64-1.01,1.01-1.68
				c1.15-2.12,2.73-5.03,5.38-4.58c1.27,0.21,2.32,1.37,2.54,2.82c0.17,1.11-0.12,2.17-0.35,3.02l-2.44,8.92
				c-0.2,0.75-0.48,1.78-1.27,2.54c-1.11,1.1-2.75,1.17-3.73,1.21l-4.2,0.17c-8.04,0.33-16.33,0.68-24.63,0.68
				c-0.46,0-0.91,0-1.37,0c-5.05-0.02-10.16-0.19-15.2-0.48c-0.64-0.04-1.97-0.11-2.74-1.14c-0.91-1.22-0.42-2.84,0.57-3.71
				c0.81-0.72,1.83-0.96,2.65-1.16c4.1-0.99,5.72-3.1,5.78-7.51c0.04-3.31,0.04-6.63,0.04-9.95c0-3.1,0-6.2,0.03-9.28
				c0.05-4.62,0.03-8.38-0.07-11.83c-0.04-1.26-0.02-2.5,0-3.75c0.03-2.46,0.07-4.78-0.3-7.17c-0.05-0.36-0.11-0.57-0.16-0.63
				c-0.07-0.08-0.42-0.18-0.55-0.22c-2.01-0.6-4.11-1.02-6.21-1.25C385.47,541.52,384.72,541.44,384.05,540.94z"/>
			
				<linearGradient id="SVGID_00000133491400922867341930000005349837919059736722_" gradientUnits="userSpaceOnUse" x1="380.9004" y1="567.7425" x2="816.2354" y2="567.7425">
				<stop  offset="0" style="stop-color:#BE965D"/>
				<stop  offset="0.2784" style="stop-color:#976F40"/>
				<stop  offset="0.4259" style="stop-color:#C99B61"/>
				<stop  offset="0.5584" style="stop-color:#F0BE7B"/>
				<stop  offset="0.6275" style="stop-color:#FFCB85"/>
				<stop  offset="0.7085" style="stop-color:#EEBC79"/>
				<stop  offset="0.8693" style="stop-color:#C0935B"/>
				<stop  offset="1" style="stop-color:#976F40"/>
			</linearGradient>
			<path style="fill:url(#SVGID_00000133491400922867341930000005349837919059736722_);" d="M517.46,537.35
				c0.21,0.78-0.07,1.66-0.75,2.35c-1.17,1.19-2.77,1.4-4.19,1.59c-1.13,0.15-2.21,0.3-2.81,0.91c-0.52,0.54-0.7,1.49-0.82,2.33
				c-0.74,5.08-0.51,10.41-0.3,15.57c0.31,7.23,0.62,14.7-1.67,21.74c-2.98,9.13-10.43,16.31-19,18.28
				c-1.87,0.43-3.82,0.65-5.89,0.65c-3.26,0-6.83-0.54-10.89-1.62c-3.96-1.06-8.94-2.77-12.33-6.63c-2.3-2.62-3.8-6.15-4.6-10.79
				c-0.97-5.68-0.72-11.45-0.48-17.03c0.08-1.87,0.16-3.74,0.2-5.61l0.04-1.44c0.17-5.55,0.44-14.83-5.04-16.31
				c-0.25-0.07-0.5-0.12-0.75-0.17c-0.58-0.11-1.23-0.25-1.86-0.55c-1.18-0.58-2.17-1.92-1.78-3.36c0.26-0.97,1.14-2.14,3.88-2.18
				l23.28-0.35c0.82-0.02,1.87-0.03,2.85,0.41c1.31,0.58,2.09,1.87,1.9,3.13c-0.18,1.2-1.15,2.14-2.74,2.65
				c-0.63,0.2-1.28,0.35-1.93,0.49c-1.26,0.28-2.45,0.54-3.31,1.22c-1.79,1.39-1.94,4.23-1.94,6.78l-0.01,16.53
				c0,4.03-0.01,8.2,0.75,12.19c0.82,4.34,2.52,7.98,4.91,10.54c2.83,3.04,7,4.86,11.16,4.88c0.61-0.02,1.19-0.03,1.78-0.1
				c3.55-0.41,6.99-2.12,9.42-4.68c2.91-3.05,4.77-7.51,5.69-13.64c1.45-9.5,0.47-19.43-0.81-28.75c-0.2-1.46-0.47-2.94-1.39-3.68
				c-0.73-0.59-1.86-0.71-3.04-0.83c-1.43-0.15-3.05-0.31-4.33-1.38c-0.92-0.76-1.61-2.12-1.08-3.43c0.5-1.25,1.74-1.84,3.85-1.83
				l21.04,0.38C516.68,535.65,517.29,536.72,517.46,537.35z"/>
			
				<linearGradient id="SVGID_00000146490839983169330940000005909591331260776106_" gradientUnits="userSpaceOnUse" x1="380.9006" y1="567.1464" x2="816.2359" y2="567.1464">
				<stop  offset="0" style="stop-color:#BE965D"/>
				<stop  offset="0.2784" style="stop-color:#976F40"/>
				<stop  offset="0.4259" style="stop-color:#C99B61"/>
				<stop  offset="0.5584" style="stop-color:#F0BE7B"/>
				<stop  offset="0.6275" style="stop-color:#FFCB85"/>
				<stop  offset="0.7085" style="stop-color:#EEBC79"/>
				<stop  offset="0.8693" style="stop-color:#C0935B"/>
				<stop  offset="1" style="stop-color:#976F40"/>
			</linearGradient>
			<path style="fill:url(#SVGID_00000146490839983169330940000005909591331260776106_);" d="M565.42,585.16
				c-1.09-1.47-2.22-2.91-3.34-4.35c-1.62-2.07-3.24-4.14-4.75-6.29c-0.02-0.03-0.04-0.06-0.06-0.09l-10.01,13.45
				c-0.49,0.65-2.03,2.85-1.15,3.88c0.32,0.38,0.97,0.58,1.65,0.8l0.68,0.22c1.8,0.64,2.88,1.98,2.77,3.41
				c-0.15,1.81-1.86,2.9-4.57,2.92l-20.74,0.15c-0.92-0.01-2.97,0.02-3.93-1.6c-0.4-0.67-0.49-1.44-0.26-2.23
				c0.38-1.3,1.5-2.27,2.43-2.75c1.72-0.89,3.6-1.15,5.41-1.4c1.58-0.22,3.07-0.43,4.39-1.03c2.3-1.05,3.97-3.32,5.46-5.31
				l10.46-14.1c0.86-1.16,1.45-1.96,1.64-2.63c0.13-0.45,0.13-1.02-0.66-2.07l-1.34-1.8c-0.84-1.13-1.68-2.25-2.53-3.37
				c-0.76-1-1.53-1.99-2.3-2.99c-1.25-1.62-2.5-3.23-3.71-4.88c-0.7-0.95-1.43-2.1-2.19-3.31c-2.43-3.87-5.19-8.25-8.91-8.81
				c-0.39-0.06-0.79-0.09-1.18-0.12c-0.93-0.07-1.98-0.15-2.97-0.59c-1.05-0.47-1.91-1.48-2.19-2.56c-0.23-0.87-0.08-1.72,0.42-2.4
				l0.3-0.4l0.5-0.07c3.26-0.45,6.54-0.29,9.71-0.14c2.4,0.12,4.84-0.02,7.2-0.16c2.88-0.17,5.86-0.34,8.86-0.06
				c2.47,0.24,3.26,1.37,3.48,2.28c0.18,0.71,0.05,1.41-0.37,2.02c-0.74,1.09-2.25,1.63-3.42,1.78c-1.36,0.17-2.09,0.57-2.09,0.86
				c0,0.2,0.29,0.6,0.46,0.83l11.51,15.89c0.04,0.05,0.07,0.1,0.1,0.13c0.07-0.07,0.15-0.18,0.26-0.33l10.66-15.65
				c0.12-0.17,0.31-0.46,0.33-0.6c0.02-0.2-0.54-0.62-1.35-0.8c-2.27-0.51-3.76-1.93-3.7-3.54c0.02-0.57,0.35-2.48,3.72-2.97
				c1.98-0.29,4.19-0.26,6.34-0.22c0.89,0.02,1.77,0.03,2.59,0.02c3.56-0.06,7.23,0.22,10.79,0.79c1.33,0.21,2.25,1,2.44,2.09
				c0.22,1.23-0.52,2.57-1.85,3.32c-1.06,0.59-2.23,0.76-3.26,0.91c-0.36,0.05-0.72,0.1-1.08,0.17c-4.08,0.8-7.23,4.21-10.35,7.93
				l-10.13,12.06c-0.46,0.56-0.95,1.14-1.07,1.71c-0.11,0.49,0.38,1.74,3.32,4.91l0.36,0.39c2.36,2.59,4.32,5.52,6.22,8.34
				c1.16,1.73,2.32,3.46,3.57,5.12c0.44,0.57,0.86,1.17,1.3,1.77c2.03,2.82,4.13,5.74,7.15,7.04c1.55,0.66,3.16,1.18,4.8,1.53
				c1.1,0.23,2.12,0.45,2.99,1.13c1.24,0.96,1.76,2.23,1.41,3.47c-0.38,1.38-1.74,2.4-3.46,2.6c-4.18,0.49-8.38,0.65-12.56,0.65
				c-3.57,0-7.12-0.11-10.61-0.22c-1.11-0.03-2.64-0.08-3.89-0.94c-1.59-1.09-1.67-2.37-1.58-3.03c0.27-1.94,2.53-3.38,3.98-3.87
				c0.51-0.18,1.4-0.55,1.55-1.09c0.29-1.02-1.39-3.05-2.5-4.39C566.14,586.08,565.74,585.6,565.42,585.16z"/>
			
				<linearGradient id="SVGID_00000016763671920857717040000000064564866535350162_" gradientUnits="userSpaceOnUse" x1="380.8842" y1="567.7425" x2="816.2192" y2="567.7425">
				<stop  offset="0" style="stop-color:#BE965D"/>
				<stop  offset="0.2784" style="stop-color:#976F40"/>
				<stop  offset="0.4259" style="stop-color:#C99B61"/>
				<stop  offset="0.5584" style="stop-color:#F0BE7B"/>
				<stop  offset="0.6275" style="stop-color:#FFCB85"/>
				<stop  offset="0.7085" style="stop-color:#EEBC79"/>
				<stop  offset="0.8693" style="stop-color:#C0935B"/>
				<stop  offset="1" style="stop-color:#976F40"/>
			</linearGradient>
			<path style="fill:url(#SVGID_00000016763671920857717040000000064564866535350162_);" d="M673,537.35
				c0.21,0.78-0.07,1.66-0.75,2.35c-1.17,1.19-2.77,1.4-4.19,1.59c-1.13,0.15-2.21,0.3-2.81,0.91c-0.52,0.54-0.7,1.49-0.82,2.33
				c-0.74,5.08-0.51,10.41-0.3,15.57c0.31,7.23,0.62,14.7-1.67,21.74c-2.98,9.13-10.43,16.31-19,18.28
				c-1.87,0.43-3.82,0.65-5.89,0.65c-3.26,0-6.83-0.54-10.89-1.62c-3.96-1.06-8.94-2.77-12.33-6.63c-2.3-2.62-3.8-6.15-4.6-10.79
				c-0.97-5.68-0.72-11.45-0.48-17.03c0.08-1.87,0.16-3.74,0.2-5.61l0.04-1.44c0.16-5.55,0.44-14.83-5.04-16.31
				c-0.25-0.07-0.5-0.12-0.75-0.17c-0.58-0.11-1.23-0.25-1.86-0.55c-1.18-0.58-2.17-1.92-1.78-3.36c0.26-0.97,1.14-2.14,3.88-2.18
				l23.28-0.35c0.82-0.02,1.87-0.03,2.85,0.41c1.31,0.58,2.09,1.87,1.9,3.13c-0.18,1.2-1.15,2.14-2.74,2.65
				c-0.63,0.2-1.28,0.35-1.93,0.49c-1.26,0.28-2.45,0.54-3.31,1.22c-1.79,1.39-1.94,4.23-1.94,6.78l-0.01,16.53
				c0,4.03-0.01,8.2,0.75,12.19c0.82,4.34,2.52,7.98,4.91,10.54c2.83,3.04,7,4.86,11.16,4.88c0.61-0.02,1.19-0.03,1.78-0.1
				c3.55-0.41,6.99-2.12,9.42-4.68c2.91-3.05,4.77-7.51,5.69-13.64c1.45-9.5,0.47-19.43-0.81-28.75c-0.2-1.46-0.47-2.94-1.39-3.68
				c-0.73-0.59-1.86-0.71-3.04-0.83c-1.43-0.15-3.05-0.31-4.33-1.38c-0.92-0.76-1.61-2.12-1.08-3.43c0.5-1.25,1.74-1.84,3.85-1.83
				l21.04,0.38C672.22,535.65,672.83,536.72,673,537.35z"/>
			
				<linearGradient id="SVGID_00000036216700939685426650000000697145857611045015_" gradientUnits="userSpaceOnUse" x1="380.9003" y1="566.9234" x2="816.2359" y2="566.9234">
				<stop  offset="0" style="stop-color:#BE965D"/>
				<stop  offset="0.2784" style="stop-color:#976F40"/>
				<stop  offset="0.4259" style="stop-color:#C99B61"/>
				<stop  offset="0.5584" style="stop-color:#F0BE7B"/>
				<stop  offset="0.6275" style="stop-color:#FFCB85"/>
				<stop  offset="0.7085" style="stop-color:#EEBC79"/>
				<stop  offset="0.8693" style="stop-color:#C0935B"/>
				<stop  offset="1" style="stop-color:#976F40"/>
			</linearGradient>
			<path style="fill:url(#SVGID_00000036216700939685426650000000697145857611045015_);" d="M715.77,588.71
				c-2.95-3.5-5.35-7.44-7.67-11.25l-1.47-2.41c-1.29-2.09-3.5-3.18-5.59-2.81c-0.51,0.09-0.68,0.23-0.75,0.3
				c-0.16,0.2-0.18,0.76-0.19,1.09l-0.43,12.02c-0.08,2.28-0.04,4.83,1.46,6.15c0.88,0.78,2.17,1.04,3.54,1.32
				c1.13,0.23,2.3,0.47,3.4,1.02c1.36,0.67,2.1,1.78,1.98,2.95c-0.15,1.54-1.64,2.49-3.89,2.49c-0.01,0-0.02,0-0.02,0
				c-8.65-0.01-17.4-0.36-26.01-1.07c-0.61-0.05-1.74-0.15-2.47-1.01c-0.49-0.58-0.67-1.33-0.48-2.11c0.22-0.96,0.97-1.85,1.89-2.25
				c0.77-0.34,1.56-0.41,2.25-0.47c0.35-0.03,0.7-0.06,1.04-0.13c1.93-0.41,3.18-2.25,3.72-3.82c0.67-1.98,0.63-4.19,0.59-6.33
				l-0.58-33.82c-0.04-2.26-0.3-4.69-1.89-5.59c-0.48-0.27-1.09-0.4-1.74-0.53c-0.52-0.11-1.04-0.22-1.54-0.39
				c-1.58-0.54-2.65-1.91-2.72-3.48c-0.07-1.53,0.81-2.9,2.3-3.58c1.09-0.5,2.28-0.53,3.24-0.55c10.64-0.26,21.64-0.52,32.42,0.96
				c4.16,0.57,8.86,1.57,12.15,4.71c2.41,2.3,3.92,5.65,4.26,9.42c0.5,5.63-1.97,11.58-6.43,15.52c-0.94,0.83-2.27,1.42-3.55,1.99
				c-1.27,0.56-2.59,1.15-3.11,1.81c-0.89,1.14,2.15,4.68,3.29,6.02c0.37,0.44,0.69,0.81,0.92,1.11l8.3,10.76
				c2.18,2.82,4.38,5.41,7.31,6.04c0.26,0.06,0.54,0.1,0.8,0.14c0.73,0.12,1.56,0.24,2.34,0.64c1.39,0.7,2.41,2.42,1.65,3.98
				c-0.8,1.64-2.83,1.69-3.59,1.7c-3.56,0.07-7.33,0.07-11-0.97C724.57,596.9,719.95,593.67,715.77,588.71z M717.53,552.9
				c-0.49-3.49-2.29-6.64-4.81-8.42c-2.19-1.55-5.09-2.46-8.38-2.65c-0.46-0.02-0.9-0.04-1.29-0.04c-0.01,0-0.02,0-0.02,0
				c-2.74,0-3.43,0.45-3.44,3.76l-0.01,12.59c0,2.24,0,4.48,0.25,6.62c0.03,0.24,0.06,0.38,0.08,0.43c0.03,0,0.3,0.06,0.42,0.09
				c2.71,0.63,5.91,0.54,9.77-0.29C715.57,563.84,718.22,557.82,717.53,552.9z"/>
			
				<linearGradient id="SVGID_00000126306862002452695180000001748032499631911102_" gradientUnits="userSpaceOnUse" x1="380.9005" y1="567.221" x2="816.2358" y2="567.221">
				<stop  offset="0" style="stop-color:#BE965D"/>
				<stop  offset="0.2784" style="stop-color:#976F40"/>
				<stop  offset="0.4259" style="stop-color:#C99B61"/>
				<stop  offset="0.5584" style="stop-color:#F0BE7B"/>
				<stop  offset="0.6275" style="stop-color:#FFCB85"/>
				<stop  offset="0.7085" style="stop-color:#EEBC79"/>
				<stop  offset="0.8693" style="stop-color:#C0935B"/>
				<stop  offset="1" style="stop-color:#976F40"/>
			</linearGradient>
			<path style="fill:url(#SVGID_00000126306862002452695180000001748032499631911102_);" d="M815.44,536.11
				c0.35,0.53,0.46,1.19,0.32,1.85c-0.17,0.79-0.68,1.52-1.38,1.97c-0.77,0.5-1.63,0.66-2.39,0.79l-0.44,0.08
				c-3.61,0.72-6.38,3.33-8.05,5.39c-1.76,2.16-3.18,4.68-4.55,7.13l-1.01,1.79c-0.68,1.19-1.39,2.37-2.1,3.55
				c-2.82,4.72-5.74,9.6-6.91,14.92c-0.97,4.43-0.72,9.09-0.48,13.59c0.09,1.66,0.26,3.35,1.28,4.2c0.74,0.61,1.88,0.73,3.07,0.86
				c0.57,0.06,1.13,0.12,1.67,0.23c1.6,0.31,3.11,1.38,3.77,2.65c0.46,0.9,0.49,1.87,0.09,2.74c-0.93,2.04-3.53,2.18-4.5,2.23
				c-4.16,0.23-8.34,0.35-12.53,0.35c-4.19,0-8.38-0.12-12.53-0.35c-1.15-0.06-2.45-0.21-3.4-1.18c-0.58-0.61-0.88-1.44-0.85-2.34
				c0.04-1.09,0.55-2.19,1.36-2.93c1.22-1.12,2.8-1.48,4.19-1.79c1.25-0.29,2.35-0.58,3.04-1.27c0.12-0.12,0.22-0.24,0.31-0.38h0
				c0.54-0.78,0.76-1.87,0.98-3.11c0.49-2.85,0.99-5.8,0.91-8.69c-0.13-4.69-1.81-9.77-5.15-15.51c-1.37-2.36-2.91-4.69-4.4-6.94
				c-1.61-2.43-3.27-4.94-4.75-7.53l-0.2-0.36c-1.61-2.84-3.28-5.78-6.05-6.49c-0.41-0.11-0.84-0.16-1.26-0.22
				c-0.67-0.09-1.35-0.18-2.05-0.42c-2.71-0.95-2.83-2.4-2.67-3.19c0.43-2.06,3.85-3.29,5.92-3.14c5.96,0.49,12,0.34,17.95-0.43
				c0.99-0.13,2.01-0.25,3.05,0.02c1.19,0.32,2.45,1.32,2.56,2.82c0.12,1.62-1.16,3.06-3.36,3.74c-1.18,0.36-2.17,0.67-2.42,1.27
				c-0.21,0.52,0.11,1.33,0.49,2.13c3.36,7.04,7.13,13.95,11.22,20.56c0.68-0.83,1.23-1.82,1.74-2.73
				c2.95-5.35,5.87-10.71,8.76-16.09c0.46-0.86,0.99-1.83,1.13-2.78c0.1-0.69-0.05-1.58-0.59-2.01c-0.33-0.25-0.81-0.39-1.37-0.54
				c-0.41-0.11-0.82-0.23-1.21-0.39c-0.95-0.39-1.74-1.18-2.07-2.06c-0.24-0.67-0.2-1.38,0.13-1.98c0.74-1.37,2.44-1.46,3.08-1.49
				c6.26-0.3,12.59-0.25,18.82,0.17C813.28,534.86,814.68,534.96,815.44,536.11z"/>
		</g>
		<g class="st36">
			<path class="st37" d="M383.83,632.59c-0.68-0.15-2.29-0.5-2.32-2.05c-0.01-0.15,0.01-0.32,0.05-0.48
				c0.24-0.93,1.14-1.53,2.41-1.6l7.33-0.45c0.83-0.05,1.98,0.2,2.58,0.92c0.38,0.46,0.51,1.06,0.36,1.64
				c-0.31,1.23-1.52,1.46-2.1,1.57c-0.05,0.01-0.12,0.02-0.19,0.04c0.71,3.37,1.88,6.6,3.46,9.64c1.39-2.55,2.5-5.26,3.31-8.05
				c0.2-0.7,0.19-1.29,0.09-1.41c-0.06-0.03-0.13-0.04-0.21-0.06c-0.55-0.16-1.46-0.42-1.77-1.41c-0.16-0.51-0.08-1.04,0.2-1.49
				c0.55-0.88,1.66-1.11,1.98-1.16c2.19-0.34,4.41-0.35,6.62-0.03c0.32,0.05,1.13,0.17,1.63,0.87c0.28,0.41,0.39,0.89,0.3,1.37
				c-0.12,0.67-0.6,1.29-1.43,1.85c-2.33,1.57-3.6,4.58-4.62,7l-4.69,11.1c-0.19,0.46-0.78,1.87-2.21,1.99c-0.01,0-0.02,0-0.03,0
				c-0.92,0-1.94-0.39-2.63-2.18l-3.19-8.29c-0.35-0.9-0.66-1.89-0.95-2.85c-0.5-1.61-1-3.23-1.7-4.51
				C385.55,633.5,384.71,632.79,383.83,632.59z"/>
			<path class="st37" d="M416.27,638.66c-0.08,0.02-0.14,0.04-0.18,0.06c0.02,0.03,0,0.14,0.01,0.35c0.12,3.63,2.87,7.94,6.36,8.26
				c1.4,0.13,2.86-0.37,3.9-1.35l0.14-0.13c0.3-0.29,0.68-0.66,1.24-0.89c0.94-0.37,2.24-0.05,2.68,1.02
				c0.22,0.54,0.29,1.4-0.62,2.41c-2.28,2.54-5.71,4.06-9.19,4.06c-0.91,0-1.8-0.1-2.66-0.3c-1.95-0.45-3.61-1.35-4.79-2.6
				c-1.21-1.28-2.03-3.01-2.52-5.3c-0.61-2.86-0.5-5.62,0.3-7.98c1.05-3.09,3.37-5.7,6.38-7.15c0.75-0.36,1.52-0.64,2.31-0.83
				c2.58-0.63,5.21-0.32,7.23,0.85c2.37,1.36,3.86,3.98,3.71,6.51c-0.05,0.88-0.35,1.54-0.88,1.98c-0.5,0.42-1.06,0.52-1.6,0.58
				c-1.71,0.17-3.46,0.09-5.01,0.01C420.68,638.13,418.4,638.03,416.27,638.66z M417.48,634.21c0.43-0.02,0.86-0.03,1.28-0.03
				c1.33,0,2.66,0.11,3.97,0.32c0.57,0.09,0.92,0.11,1.04,0.05c0.03-0.03,0.06-0.09,0.05-0.25c-0.03-0.5-0.49-1.22-0.88-1.54
				c-0.7-0.57-1.8-0.77-2.74-0.51c-0.14,0.04-0.27,0.08-0.39,0.13C418.85,632.76,418.07,633.47,417.48,634.21z"/>
			<path class="st37" d="M445.36,652.57l-0.35,0.01c-3.68,0-7.37-1.96-9.41-5c-2.11-3.14-2.53-7.34-1.11-10.97
				c1.35-3.45,4.32-6.29,7.95-7.59c2.93-1.04,5.85-0.79,7.79,0.68c0.14,0.1,0.27,0.22,0.4,0.33c0.21,0.17,0.4,0.34,0.57,0.42
				c0.01-0.05,0.02-0.1,0.03-0.14c0.11-0.5,0.38-1.67,1.61-1.86c0.54-0.09,1.08,0.08,1.47,0.46c0.61,0.58,0.77,1.5,0.71,2.12
				c-0.15,1.7-0.93,3.37-2.15,4.58c-0.25,0.25-0.57,0.52-1.03,0.64c-1.38,0.4-2.27-0.81-2.65-1.32c-1.38-1.85-4.11-2.58-6.23-1.65
				c-1.09,0.48-2.02,1.42-2.57,2.59c-1.02,2.2-0.82,5.08,0.53,7.51c0.62,1.12,1.45,2.06,2.4,2.71c2.14,1.48,5.14,1.43,6.82-0.12
				c0.13-0.12,0.26-0.25,0.39-0.38c0.63-0.65,1.32-1.36,2.35-1.61c0.49-0.12,0.96-0.08,1.36,0.13c0.41,0.22,0.69,0.59,0.82,1.02
				c0.22,0.78-0.14,1.52-0.31,1.81C452.86,650.24,449.17,652.44,445.36,652.57z"/>
			<path class="st37" d="M470.61,651.81c-1.36,0.43-2.79,0.65-4.24,0.65c-0.46,0-0.92-0.02-1.38-0.07
				c-0.84-0.09-1.92-0.28-2.77-1.03c-1.22-1.07-1.38-2.76-1.46-3.67c-0.37-3.96-0.42-8-0.14-11.98c0.06-0.83,0.11-1.6-0.15-2.13
				c-0.09-0.18-0.29-0.35-0.47-0.4l-1.04,0.57l-0.68-0.9c-0.45-0.58-0.59-1.35-0.39-2.06l0.21-0.77l0.79-0.13
				c1.86-0.3,3.56-1.52,4.43-3.19c0.23-0.44,0.48-0.76,0.76-0.99c0.5-0.41,1.12-0.54,1.7-0.35c0.39,0.13,1.29,0.6,1.26,2.18
				l-0.02,1.07c0.86,0.11,1.72,0.14,2.59,0.1l0.19-0.01c0.87-0.06,1.94-0.11,2.91,0.49c0.79,0.49,1.28,1.42,1.23,2.36
				c-0.04,0.8-0.46,1.47-1.13,1.81l-0.18,0.09l-0.32,0.05l-4.54-0.27c-0.47-0.03-0.63,0-0.68,0.03h0c0.04,0,0.01,0.16-0.01,0.42
				c-0.35,4.08-0.64,8.38,0.09,12.05c0.23,1.14,0.6,1.85,1.06,1.99c0.41,0.14,1.01-0.13,1.65-0.41c0.5-0.22,1.06-0.46,1.67-0.58
				c0.59-0.12,1.09-0.04,1.5,0.25c0.54,0.37,0.81,1.03,0.71,1.77C473.58,650.13,472.46,651.22,470.61,651.81z"/>
			<path class="st37" d="M495.96,650.85c-1.87,1.15-4.07,1.76-6.37,1.76c-2.98,0-5.81-1.01-7.97-2.85
				c-4.02-3.41-5.28-8.86-3.21-13.89c2.06-5.02,6.76-8.01,12.05-7.63c5.14,0.39,9.75,4.3,10.96,9.31c0.38,1.55,0.43,3.16,0.15,4.8
				C500.96,645.88,498.87,649.05,495.96,650.85z M493.08,634.7c-1.17-1.97-3.04-2.96-4.64-2.49c-0.55,0.16-1.08,0.48-1.59,0.95
				c-1.23,1.12-2.01,2.9-2.38,5.44c-0.4,2.74-0.14,5,0.77,6.71c0.87,1.64,2.9,3.19,4.94,2.84c2.2-0.39,3.59-2.69,4.12-4.55
				C495.11,640.69,494.66,637.37,493.08,634.7z"/>
			<path class="st37" d="M514.04,635.26c-0.59,1.43-0.55,3.2-0.52,4.76l0.1,4.75c0.02,0.8,0.04,1.63,0.29,2.29
				c0.2,0.53,0.61,0.94,0.98,1c0.14,0.02,0.29,0.03,0.45,0.04c0.71,0.05,2.04,0.13,2.51,1.42c0.05,0.15,0.09,0.31,0.11,0.48
				c0.06,0.84-0.4,1.67-1.16,2.11c-0.64,0.37-1.31,0.4-1.8,0.42c-2.42,0.12-4.89,0.2-7.33,0.25c0,0,0,0-0.01,0
				c-2.06,0-3.35-0.92-3.41-2.34c-0.05-1.24,0.92-2.09,1.85-2.46c0.19-0.08,0.39-0.14,0.58-0.2c0.27-0.09,0.56-0.18,0.69-0.29
				c0.35-0.29,0.33-1.26,0.31-1.73l-0.22-8.7c-0.02-0.83-0.04-1.46-0.16-2.04c-0.04-0.2-0.23-0.55-0.38-0.83
				c-0.25-0.45-0.52-0.95-0.61-1.52c-0.3-1.99,1.97-3.28,3.79-4.31c0.38-0.22,0.71-0.4,0.96-0.57c0.16-0.1,0.6-0.42,1.23-0.35
				c0.31,0.03,1.34,0.26,1.52,1.75l0.06,0.5c0.4-0.33,0.86-0.65,1.35-0.92c1.62-0.88,3.42-0.96,4.82-0.25
				c0.91,0.47,1.63,1.34,1.92,2.35c0.27,0.91,0.18,1.83-0.26,2.59c-0.7,1.23-2.27,1.87-3.62,1.51c-0.91-0.24-1.66-0.89-2.07-1.74
				C515.14,633.56,514.39,634.43,514.04,635.26z"/>
			<path class="st37" d="M552.33,652.48c-0.3,0-0.59-0.09-0.86-0.27c-0.51-0.33-0.76-0.89-0.75-1.64l0.46-28.25
				c0.03-1.48-0.01-2.77-0.64-3.66c-0.11-0.16-0.25-0.31-0.39-0.45l-0.26-0.27c-0.39-0.4-0.83-0.84-1.16-1.42
				c-0.44-0.78-0.53-1.58-0.27-2.33c0.33-0.95,1.21-1.72,2.61-2.3l0.35-0.15c1.04-0.44,2.48-1.05,3.78-0.82
				c2.48,0.45,2.27,2.69,2.16,3.77c-0.03,0.28-0.05,0.53-0.05,0.75l-0.06,13.8c2.61-0.86,5.56-1.5,8.48-0.79
				c4.24,1.03,7.64,5.08,8.1,9.63v0c0.43,4.21-1.59,8.72-5.15,11.49c-3.42,2.66-7.92,3.55-11.75,2.29l-0.5-0.17
				c-0.6-0.22-1.04-0.38-1.45-0.43c-0.41-0.06-0.82,0.03-0.97,0.21C553.73,651.81,553.15,652.48,552.33,652.48z M557.13,640.05
				c0.04,1.06,0.11,2.13,0.22,3.19c0.13,1.33,0.34,2.83,1.16,3.83c0.98,1.19,3.03,1.59,4.65,0.89c1.57-0.68,2.86-2.2,3.53-4.19
				c0.94-2.78,0.45-5.97-1.25-8.13c-1.24-1.58-3.71-2.81-5.61-2.81c-0.39,0-0.74,0.05-1.06,0.15c-1.01,0.32-1.54,1.19-1.61,2.66
				C557.09,637.1,557.08,638.59,557.13,640.05z"/>
			<path class="st37" d="M598.3,647.57l0.48,0.19l-0.02,0.87c-0.04,1.26-0.86,2.51-2.08,3.17c-0.77,0.41-1.69,0.62-2.75,0.62
				c-0.17,0-0.34,0-0.51-0.02c-1.86-0.11-3.72-0.77-5.23-1.87c-0.07,0-0.48,0.33-0.69,0.5c-0.42,0.33-0.82,0.64-1.27,0.82
				c-1.42,0.58-3.07,0.6-4.77,0.05c-1.38-0.44-2.4-1-3.19-1.74c-1.07-1-1.64-2.2-1.62-3.48c0.01-1.36,0.69-2.72,1.92-3.82
				c1.96-1.76,4.35-2.98,6.9-3.52l0.22-0.05c0.79-0.16,1.67-0.34,1.9-0.77c0.1-0.19,0.13-0.52,0.16-0.85
				c0.13-1.64,0.19-3.32-0.71-4.24c-0.34-0.35-0.86-0.62-1.49-0.76c-0.75-0.17-1.72-0.06-2.12,0.45c0,0,0,0,0,0
				c0.26,0.12,0.5,0.23,0.72,0.39c0.93,0.65,1.33,1.69,1.08,2.79c-0.33,1.43-1.75,2.77-3.16,2.99c-0.97,0.15-2.06-0.18-2.99-0.91
				c-1-0.8-1.64-1.93-1.72-3.01c-0.1-1.42,0.38-2.68,1.4-3.77c2.48-2.63,7.57-3.34,9.92-3.35c2.07,0.02,3.64,1.05,4.56,2.99
				c0.52,1.09,0.83,2.45,0.98,4.27c0.23,2.7,0.06,5.21-0.11,7.88l-0.03,0.45c-0.06,0.88-0.12,1.88,0.16,2.65
				c0.19,0.52,0.66,1.05,1.11,1.03c0.19-0.01,0.35-0.05,0.52-0.08c0.61-0.14,1.35-0.31,2.13,0L598.3,647.57z M587.47,643.04
				l-1.09,0.31c-0.82,0.23-1.67,0.48-2.35,0.89c-0.61,0.37-1.05,0.89-1.17,1.39c-0.09,0.36-0.11,0.9,0.65,1.42
				c0.7,0.47,1.72,0.65,2.45,0.43c0.32-0.1,1.1-0.39,1.34-0.96c0.13-0.3,0.13-0.76,0.14-1.2L587.47,643.04z"/>
			<path class="st37" d="M613.43,652.57l-0.35,0.01c-3.68,0-7.37-1.96-9.41-5c-2.11-3.14-2.53-7.34-1.11-10.97
				c1.35-3.45,4.32-6.29,7.95-7.59c2.93-1.04,5.85-0.79,7.79,0.68c0.14,0.1,0.27,0.22,0.4,0.33c0.21,0.17,0.4,0.34,0.57,0.42
				c0.01-0.05,0.02-0.1,0.03-0.14c0.11-0.5,0.38-1.67,1.61-1.86c0.54-0.09,1.08,0.08,1.47,0.46c0.61,0.58,0.77,1.5,0.71,2.12
				c-0.15,1.7-0.93,3.37-2.15,4.58c-0.25,0.25-0.57,0.52-1.03,0.64c-1.38,0.4-2.27-0.81-2.65-1.32c-1.38-1.85-4.11-2.58-6.23-1.65
				c-1.09,0.48-2.02,1.42-2.57,2.59c-1.02,2.2-0.82,5.08,0.53,7.51c0.62,1.12,1.45,2.06,2.4,2.71c2.14,1.48,5.14,1.43,6.82-0.12
				c0.13-0.12,0.26-0.25,0.39-0.38c0.63-0.65,1.32-1.36,2.35-1.61c0.49-0.12,0.96-0.08,1.36,0.13c0.41,0.22,0.69,0.59,0.82,1.02
				c0.22,0.78-0.14,1.52-0.31,1.81C620.93,650.24,617.24,652.44,613.43,652.57z"/>
			<path class="st37" d="M633.15,652.75l-5.03-0.35c-0.3-0.02-0.85-0.06-1.33-0.42c-0.96-0.71-1.05-1.47-0.96-1.98
				c0.24-1.33,1.86-1.81,2.74-2.07c0.42-0.13,0.69-0.45,0.84-0.87c0.19-0.53,0.21-1.2,0.24-1.84c0.15-3.99,0.1-8.04,0.06-11.95
				c-0.05-4.78-0.13-9.35-0.24-13.67c-0.02-0.65-0.14-0.88-0.39-1.12c-0.07-0.05-0.26-0.13-0.42-0.2c-0.68-0.32-2.47-1.16-1.82-2.94
				c0.23-0.64,0.71-0.96,1.04-1.17c0.43-0.29,0.83-0.59,1.24-0.9c1.52-1.16,3.36-2.59,5.62-2.42l1.08,0.07l0.09,1.08
				c0.46,5.48,0.21,11.15-0.03,16.64c-0.11,2.55-0.23,5.17-0.27,7.7c-0.01,0.62,0.08,0.92,0.13,1.01c0-0.04,0.16-0.11,0.5-0.34
				c1.37-0.92,2.61-2.03,3.7-3.27c0.11-0.12,0.25-0.28,0.41-0.44c0.32-0.34,0.55-0.61,0.72-0.81c-1.66-0.31-1.95-1.36-2-1.83
				c-0.09-0.99,0.63-1.79,1.4-2.06c0.17-0.06,0.33-0.1,0.49-0.12c0.37-0.05,0.7-0.03,0.97-0.01c2.32,0.19,4.62,0.11,6.87-0.23
				c0.35-0.05,1.02-0.16,1.67,0.19c0.6,0.33,0.98,0.95,1,1.66c0.03,0.84-0.43,1.71-1.14,2.15c-0.62,0.39-1.28,0.49-1.81,0.57
				c-0.18,0.03-0.35,0.05-0.52,0.09c-0.99,0.23-1.89,1.08-2.68,1.82l-3.73,3.52c0.27,0.48,1.19,1.91,4.32,5.18l0.78,0.84
				c1.27,1.38,2.58,2.81,3.92,3.29l0.25,0.09c0.55,0.19,1.22,0.42,1.77,0.98c0.51,0.53,0.75,1.31,0.63,2.04
				c-0.1,0.63-0.48,1.15-1.02,1.43c-0.43,0.23-0.86,0.24-1.14,0.25l-6.66,0.14c-1.03,0.03-2.94,0.06-4.15-1.25
				c-0.35-0.27-0.56-0.89-0.45-1.49c0.15-0.74,0.78-1.42,1.54-1.66c0.11-0.03,0.23-0.06,0.34-0.09c-0.02-0.02-0.04-0.04-0.06-0.07
				l-5.24-6c-0.16-0.18-0.29-0.31-0.39-0.4c-0.1,0.41-0.36,1.55-0.34,4.34c0,0.6,0.01,1.08,0.13,1.42c0.08,0.22,0.21,0.36,0.27,0.37
				c0.06,0.01,0.21,0.02,0.29,0.02c0.24,0.01,0.49,0.02,0.73,0.07c1.03,0.21,1.79,0.96,1.99,1.94c0.19,0.98-0.24,2.02-1.07,2.58
				c-0.62,0.41-1.46,0.62-2.59,0.62c-0.6,0-1.2-0.05-1.72-0.1L633.15,652.75z"/>
			<path class="st37" d="M664.08,665.95c-2.7-0.21-5.07-1.41-6.5-3.28c-1.7-2.23-1.84-5.38-0.35-7.49c0.77-1.08,1.87-1.81,2.76-2.4
				c0.11-0.07,0.45-0.29,0.5-0.39c-0.03-0.04-0.25-0.34-0.69-0.59l-0.36-0.2c-0.77-0.41-1.74-0.93-2.19-2.03
				c-0.74-1.79,0.49-3.54,1.9-4.58l0.36-0.27c0.44-0.32,0.88-0.64,1.19-0.97c-2.28-1.73-3.61-4.64-3.35-7.48
				c0.44-4.78,4.74-7.66,8.76-8.03c1.16-0.11,2.31-0.01,3.4,0.28c0.83,0.22,1.64,0.51,2.42,0.79c0.9,0.33,1.79,0.65,2.66,0.86
				c0.05-0.48,0.29-0.92,0.69-1.25c0.46-0.39,1.06-0.56,1.64-0.47c0.76,0.11,1.45,0.62,1.87,1.39c0.61,1.09,0.52,2.49-0.23,3.64
				c-0.51,0.79-1.24,1.34-2.07,1.58c-0.41,2.05-0.89,4.04-1.9,5.86c-1.41,2.55-3.71,4.22-6.14,4.47c-0.7,0.07-1.39,0.03-2-0.01
				c-0.47-0.03-0.91-0.06-1.35-0.04c-0.66,0.04-1.44,0.29-1.65,0.77c-0.22,0.48,0.21,1.22,0.72,1.54c0.8,0.5,1.92,0.5,2.8,0.45
				c0.69-0.04,1.39-0.12,2.08-0.21c1.04-0.12,2.05-0.24,3.09-0.25c2.37,0,4.28,0.6,5.63,1.73c2.9,2.44,2.78,7,1,9.84
				c-1.52,2.42-4.1,4.25-7.88,5.59c-2.25,0.8-4.12,1.17-5.9,1.17C664.7,665.98,664.39,665.97,664.08,665.95z M665.34,660.62
				c2.84,1.02,6.28,0.22,8.37-1.94h0c0.88-0.9,1.59-2.34,1.08-3.36c-0.26-0.52-0.83-0.96-1.76-1.35c-1.19-0.51-2.54-0.78-3.9-0.78
				c-0.68,0-1.36,0.07-2.02,0.2c-0.5,0.1-1.01,0.24-1.52,0.42c-1.26,0.46-2.32,1.43-2.77,2.53c-0.32,0.78-0.29,1.6,0.07,2.37
				C663.28,659.51,664.15,660.2,665.34,660.62z M664.02,638.75c0.33,1.06,0.84,1.85,1.49,2.27c0.74,0.48,1.51,0.63,2.22,0.43
				c0.88-0.25,1.68-0.99,2.17-2.04c0.84-1.76,0.72-3.98-0.32-5.65c-0.27-0.43-0.56-0.77-0.86-1.02c-0.66-0.53-1.55-0.77-2.41-0.6
				c-0.84,0.16-1.59,0.71-2.02,1.46C663.6,634.84,663.48,637.01,664.02,638.75z"/>
			<path class="st37" d="M692.87,635.26c-0.59,1.43-0.55,3.2-0.52,4.76l0.11,4.75c0.02,0.8,0.04,1.63,0.29,2.29
				c0.2,0.53,0.61,0.94,0.98,1c0.14,0.02,0.29,0.03,0.45,0.04c0.71,0.05,2.04,0.13,2.51,1.42c0.05,0.15,0.09,0.31,0.11,0.48
				c0.06,0.84-0.4,1.67-1.16,2.11c-0.64,0.37-1.31,0.4-1.8,0.42c-2.42,0.12-4.89,0.2-7.33,0.25c0,0,0,0-0.01,0
				c-2.06,0-3.35-0.92-3.41-2.34c-0.05-1.24,0.92-2.09,1.85-2.46c0.19-0.08,0.39-0.14,0.58-0.2c0.27-0.09,0.56-0.18,0.69-0.29
				c0.35-0.29,0.33-1.26,0.31-1.73l-0.22-8.7c-0.02-0.83-0.04-1.46-0.16-2.04c-0.04-0.2-0.23-0.55-0.38-0.83
				c-0.25-0.45-0.52-0.95-0.61-1.52c-0.3-1.99,1.97-3.28,3.79-4.31c0.38-0.22,0.71-0.4,0.96-0.57c0.16-0.1,0.6-0.42,1.23-0.35
				c0.31,0.03,1.34,0.26,1.52,1.75l0.06,0.5c0.4-0.33,0.86-0.65,1.36-0.92c1.62-0.88,3.42-0.96,4.82-0.25
				c0.91,0.47,1.63,1.34,1.92,2.35c0.27,0.91,0.18,1.83-0.26,2.59c-0.7,1.23-2.27,1.87-3.62,1.51c-0.91-0.24-1.66-0.89-2.07-1.74
				C693.97,633.56,693.21,634.43,692.87,635.26z"/>
			<path class="st37" d="M723.03,650.85c-1.87,1.15-4.07,1.76-6.37,1.76c-2.98,0-5.81-1.01-7.97-2.85
				c-4.02-3.41-5.28-8.86-3.21-13.89c2.06-5.02,6.76-8.01,12.05-7.63c5.14,0.39,9.75,4.3,10.96,9.31c0.38,1.55,0.43,3.16,0.15,4.8
				C728.04,645.88,725.94,649.05,723.03,650.85z M720.15,634.7c-1.17-1.97-3.04-2.96-4.64-2.49c-0.55,0.16-1.08,0.48-1.59,0.95
				c-1.23,1.12-2.01,2.9-2.38,5.44c-0.4,2.74-0.14,5,0.77,6.71c0.87,1.64,2.9,3.19,4.94,2.84c2.2-0.39,3.59-2.69,4.12-4.55
				C722.19,640.69,721.74,637.37,720.15,634.7z"/>
			<path class="st37" d="M757.97,647.7c0.59,0.96,0.22,2.12-0.45,2.76c-0.52,0.5-1.14,0.72-1.69,0.89c-1.98,0.6-4.02,1.04-6.06,1.29
				c-0.61,0.08-1.12-0.07-1.48-0.46c-0.43-0.44-0.44-1.01-0.44-1.19l-0.01-0.58c-1.31,0.82-2.69,1.59-4.27,2.04
				c-0.8,0.22-1.6,0.34-2.39,0.34c-1.5,0-2.87-0.42-3.96-1.21c-2.61-1.9-3.04-5.29-3.11-8.67l-0.15-6.92
				c-0.04-2.05-0.45-3.24-1.2-3.53l-0.21-0.08c-0.5-0.2-0.85-0.5-1.05-0.91c-0.21-0.44-0.21-0.94-0.01-1.38
				c0.37-0.82,1.29-1.13,1.56-1.21c1.28-0.35,2.6-0.62,3.92-0.79c0.48-0.06,1.96-0.25,2.84,0.83c0.55,0.68,0.56,1.49,0.56,1.98
				c0.01,1.38-0.05,2.8-0.12,4.31c-0.14,3.28-0.29,6.66,0.34,9.52c0.26,1.15,0.85,2.06,1.62,2.5c0.92,0.52,2.28,0.47,3.73-0.15
				c0.9-0.38,1.48-0.82,1.77-1.35c0.39-0.69,0.35-1.7,0.31-2.59l-0.37-9.25c-0.03-0.72-0.13-0.88-0.16-0.92
				c-0.06-0.04-0.34-0.11-0.51-0.15c-0.61-0.16-2.01-0.53-2.03-2l-0.01-0.94l0.89-0.27c2.09-0.63,4.25-1.12,6.43-1.46
				c0.3-0.05,1.07-0.16,1.69,0.41c0.64,0.58,0.57,1.39,0.55,1.69c-0.47,5.59-0.43,11.26,0.13,16.86l2.97-0.04L757.97,647.7z"/>
			<path class="st37" d="M777.79,647.67c0.41-0.3,0.44-1.25,0.42-2.04l-0.25-8.73c-0.04-1.45-0.42-2.46-1.13-3.01
				c-0.66-0.5-1.65-0.65-2.96-0.44c-1.13,0.18-2.07,0.81-2.46,1.65c-0.27,0.57-0.32,1.3-0.36,2.12c-0.13,2.85-0.12,5.73,0.03,8.56
				c0.06,1.17,0.29,1.88,0.66,2.05c0.09,0.04,0.19,0.07,0.29,0.1c0.46,0.13,1.02,0.3,1.48,0.81c0.42,0.47,0.6,1.08,0.52,1.73
				c-0.09,0.73-0.53,1.45-1.15,1.86c-0.82,0.55-1.75,0.6-2.62,0.61l-0.82,0c-1.82,0-3.65-0.04-5.45-0.12
				c-0.41-0.02-1.81-0.15-2.57-1.1c-0.37-0.46-0.51-1.03-0.41-1.61c0.22-1.23,1.32-1.63,1.97-1.87c0.18-0.07,0.31-0.11,0.43-0.17
				c0.73-0.36,0.81-1.78,0.81-2.81l-0.02-9.21c0-1.03-0.05-2.07-0.58-2.55c-0.33-0.28-0.72-0.6-0.9-1.14
				c-0.34-1,0.16-2.02,1.34-2.72c1.65-0.99,3.43-1.72,5.3-2.17l1.18-0.29l0.32,1.18c0.16,0.6,0.07,1.18,0,1.66
				c0.48-0.14,0.95-0.3,1.42-0.45c1.52-0.5,3.09-1.02,4.79-1.13c2.47-0.13,5.48,0.83,6.66,3.34c0.47,1,0.57,2,0.65,3.12
				c0.22,3.28,0.29,6.59,0.19,9.85c-0.03,0.9-0.05,1.61,0.13,2.25c0.15,0.56,0.47,0.99,0.84,1.12c0.11,0.04,0.22,0.06,0.34,0.09
				c0.31,0.07,0.61,0.14,0.94,0.29l0,0c0.87,0.4,1.58,1.38,1.26,2.46c-0.19,0.65-0.76,1.43-2.4,1.49l-7.15,0.25
				c-0.86,0.02-2.01-0.12-2.75-0.87c-0.41-0.41-0.63-0.96-0.62-1.54c0.04-1.42,1.27-1.96,2-2.28
				C777.39,647.88,777.65,647.77,777.79,647.67z"/>
			<path class="st37" d="M807.55,612.73c1.26-0.81,2.61-1.5,4.01-2.04c1.35-0.52,2.04,0.23,2.22,0.47c0.32,0.42,0.33,0.87,0.34,1.08
				c0.19,5.42,0.03,10.92-0.13,16.23c-0.15,5.24-0.32,10.64-0.14,15.93c0.04,1.11,0.11,2.16,0.64,2.82
				c0.05,0.06,0.11,0.12,0.19,0.18c0.25,0.18,0.58,0.28,0.83,0.23c0.14-0.02,0.18-0.07,0.19-0.1l0.6-0.87l0.96,0.45
				c0.59,0.28,1.01,0.8,1.17,1.47c0.18,0.75,0,1.6-0.47,2.2c-0.66,0.86-1.68,1.19-2.49,1.39c-1.35,0.32-2.73,0.48-4.11,0.48
				c-0.56,0-1.12-0.03-1.67-0.08c-0.34-0.03-1.37-0.12-1.91-1.01c-0.18-0.29-0.26-0.6-0.28-0.89c-2.77,1.71-6.3,2.16-9.4,1.17
				c-1.28-0.41-3.06-1.25-4.28-2.93c-0.88-1.2-1.3-2.59-1.62-3.91c-1.41-5.79,0.71-11.75,5.28-14.85c3.03-2.05,6.82-2.04,10.12-1.86
				c0.02,0,0.05,0,0.08,0l0.27-7.54c0.03-0.78,0.03-1.57-0.29-1.98c-0.12-0.15-0.34-0.32-0.56-0.49c-0.55-0.42-1.28-0.99-1.52-1.97
				C805.39,615.57,805.41,614.11,807.55,612.73z M808.09,643.58l-0.38-6.18c-0.1-1.61-0.24-3.01-0.98-3.96
				c-0.62-0.78-1.68-1.25-2.84-1.26c-1.55,0-2.93,0.59-3.98,1.7c-1.4,1.48-2.15,3.73-2.02,6.04c0.13,2.35,1.03,4.49,2.45,5.89
				c0.53,0.51,1.16,0.95,1.84,1.25c1.26,0.57,2.6,0.68,3.77,0.33c0.99-0.3,1.74-0.91,2.02-1.64
				C808.18,645.13,808.13,644.34,808.09,643.58z"/>
		</g>
	</g>
</g>
</svg>
