<?xml version="1.0" encoding="utf-8"?>
<!-- Generator: Adobe Illustrator 25.4.1, SVG Export Plug-In . SVG Version: 6.00 Build 0)  -->
<svg version="1.1" id="visual" xmlns="http://www.w3.org/2000/svg" xmlns:xlink="http://www.w3.org/1999/xlink" x="0px" y="0px"
	 viewBox="0 0 900 600" style="enable-background:new 0 0 900 600;" xml:space="preserve">
<style type="text/css">
	.st0{fill:#C4A82E;stroke:#C4A82E;stroke-linejoin:bevel;}
	.st1{fill:#D4BA60;stroke:#D4BA60;stroke-linejoin:bevel;}
	.st2{fill:#BB9F00;stroke:#BB9F00;stroke-linejoin:bevel;}
	.st3{fill:#CCB148;stroke:#CCB148;stroke-linejoin:bevel;}
</style>
<g>
	<path class="st0" d="M427,306.9l46-59.8l-85,26L427,306.9z"/>
	<path class="st1" d="M473,247.1l-120-51.7l35,77.7L473,247.1z"/>
	<path class="st1" d="M273,280.1l29,53.8l86-60.8L273,280.1z"/>
	<path class="st1" d="M346,53.7l-53,132.7l60,9L346,53.7z"/>
	<path class="st1" d="M444,454.6l98-3l-10-76.7L444,454.6z"/>
	<path class="st0" d="M559,185.4l1-113.7l-87,88.7L559,185.4z"/>
	<path class="st1" d="M445,81.7l-99-28l7,141.7L445,81.7z"/>
	<path class="st0" d="M171,170.4l-26,114.7l128-5L171,170.4z"/>
	<path class="st1" d="M468,600l67-84.7l-86-26L468,600z"/>
	<path class="st1" d="M662,315.9l-91-93.8l-39,152.8L662,315.9z"/>
	<path class="st2" d="M75,335.9l33,95.7l75-38L75,335.9z"/>
	<path class="st3" d="M240,56.7l-69,113.7l122,16L240,56.7z"/>
	<path class="st2" d="M346,53.7l-106,3l53,129.7L346,53.7z"/>
	<path class="st0" d="M346,53.7L269,0l-29,56.7L346,53.7z"/>
	<path class="st0" d="M108,431.6l94,72.7l-19-110.7L108,431.6z"/>
	<path class="st2" d="M753,370.9l-33-95.8l-58,40.8L753,370.9z"/>
	<path class="st3" d="M95,135.4l-6,131.7l82-96.7L95,135.4z"/>
	<path class="st2" d="M720,275.1l-1-73.7l-72,24.7L720,275.1z"/>
	<path class="st2" d="M75,335.9l108,57.7l-9-60.7L75,335.9z"/>
	<path class="st1" d="M193,600h54l-45-95.7L193,600z"/>
	<path class="st3" d="M202,504.3l45,95.7l24-103.7L202,504.3z"/>
	<path class="st2" d="M750,436.6l-150,13l22,31.7L750,436.6z"/>
	<path class="st0" d="M123,600h70l9-95.7L123,600z"/>
	<path class="st0" d="M646,600l52-50.7l-76-68L646,600z"/>
	<path class="st1" d="M555,600h91l-24-118.7L555,600z"/>
	<path class="st0" d="M832,246.1l-113-44.7l1,73.7L832,246.1z"/>
	<path class="st3" d="M0,364.9v91.7l108-25L0,364.9z"/>
	<path class="st3" d="M55,512.3L0,600h123L55,512.3z"/>
	<path class="st3" d="M174,0H66l35,49.7L174,0z"/>
	<path class="st1" d="M900,174.4l-106-25l38,96.7L900,174.4z"/>
	<path class="st2" d="M0,456.6v88.7l55-33L0,456.6z"/>
	<path class="st1" d="M844,366.9l56-78.8l-68-42L844,366.9z"/>
	<path class="st3" d="M900,327.9v-39.8l-56,78.8L900,327.9z"/>
	<path class="st0" d="M66,0H0v87.7L66,0z"/>
	<path class="st2" d="M900,288.1V174.4l-68,71.7L900,288.1z"/>
	<path class="st3" d="M820,96.7L833,0H697L820,96.7z"/>
</g>
</svg>
